<svg xmlns="http://www.w3.org/2000/svg" width="1200" height="640" viewBox="0 0 1200 640" role="img"><style>text{font-family:Verdana,sans-serif;font-size:12px;fill:#1e1e1e;}</style><rect width="100%" height="100%" fill="#ffffff"/><line x1="80" y1="60" x2="80" y2="580" stroke="#444" stroke-width="1.2"/><line x1="80" y1="580" x2="1120" y2="580" stroke="#444" stroke-width="1.2"/><line x1="80" y1="580.0" x2="1120" y2="580.0" stroke="#ddd" stroke-width="1"/><text x="72" y="584.0" text-anchor="end"> 0</text><line x1="80" y1="476.0" x2="1120" y2="476.0" stroke="#ddd" stroke-width="1"/><text x="72" y="480.0" text-anchor="end"> 10000</text><line x1="80" y1="372.0" x2="1120" y2="372.0" stroke="#ddd" stroke-width="1"/><text x="72" y="376.0" text-anchor="end"> 20000</text><line x1="80" y1="268.0" x2="1120" y2="268.0" stroke="#ddd" stroke-width="1"/><text x="72" y="272.0" text-anchor="end"> 30000</text><line x1="80" y1="164.0" x2="1120" y2="164.0" stroke="#ddd" stroke-width="1"/><text x="72" y="168.0" text-anchor="end"> 40000</text><line x1="80" y1="60.0" x2="1120" y2="60.0" stroke="#ddd" stroke-width="1"/><text x="72" y="64.0" text-anchor="end"> 50000</text><text x="600" y="30" text-anchor="middle" font-size="16px" font-weight="600">BenchmarkRedeemValid-10</text><text x="600" y="615" text-anchor="middle">ns/op</text><circle cx="600.0" cy="127.1" r="5" fill="#1f77b4"/><text x="600.0" y="635" text-anchor="middle" fill="#333">BenchmarkRedeemValid-10</text><polyline points="600.0,127.1" fill="none" stroke="#ff7f0e" stroke-width="3" stroke-linejoin="round" stroke-linecap="round"/><text x="600" y="48" text-anchor="middle" font-size="12px">43546 ns/op max</text></svg>