<svg xmlns="http://www.w3.org/2000/svg" width="1200" height="640" viewBox="0 0 1200 640" role="img"><style>text{font-family:Verdana,sans-serif;font-size:12px;fill:#1e1e1e;}</style><rect width="100%" height="100%" fill="#ffffff"/><line x1="80" y1="60" x2="80" y2="580" stroke="#444" stroke-width="1.2"/><line x1="80" y1="580" x2="1120" y2="580" stroke="#444" stroke-width="1.2"/><line x1="80" y1="580.0" x2="1120" y2="580.0" stroke="#ddd" stroke-width="1"/><text x="72" y="584.0" text-anchor="end"> 0</text><line x1="80" y1="406.7" x2="1120" y2="406.7" stroke="#ddd" stroke-width="1"/><text x="72" y="410.7" text-anchor="end"> 200000</text><line x1="80" y1="233.3" x2="1120" y2="233.3" stroke="#ddd" stroke-width="1"/><text x="72" y="237.3" text-anchor="end"> 400000</text><line x1="80" y1="60.0" x2="1120" y2="60.0" stroke="#ddd" stroke-width="1"/><text x="72" y="64.0" text-anchor="end"> 600000</text><line x1="80" y1="-113.3" x2="1120" y2="-113.3" stroke="#ddd" stroke-width="1"/><text x="72" y="-109.3" text-anchor="end"> 800000</text><line x1="80" y1="-286.7" x2="1120" y2="-286.7" stroke="#ddd" stroke-width="1"/><text x="72" y="-282.7" text-anchor="end"> 1000000</text><text x="600" y="30" text-anchor="middle" font-size="16px" font-weight="600">BenchmarkIssuance-10</text><text x="600" y="615" text-anchor="middle">ns/op</text><circle cx="600.0" cy="71.7" r="5" fill="#1f77b4"/><text x="600.0" y="635" text-anchor="middle" fill="#333">BenchmarkIssuance-10</text><polyline points="600.0,71.7" fill="none" stroke="#ff7f0e" stroke-width="3" stroke-linejoin="round" stroke-linecap="round"/><text x="600" y="48" text-anchor="middle" font-size="12px">586471 ns/op max</text></svg>