<svg xmlns="http://www.w3.org/2000/svg" width="1200" height="640" viewBox="0 0 1200 640" role="img"><style>text{font-family:Verdana,sans-serif;font-size:12px;fill:#1e1e1e;}</style><rect width="100%" height="100%" fill="#ffffff"/><line x1="80" y1="60" x2="80" y2="580" stroke="#444" stroke-width="1.2"/><line x1="80" y1="580" x2="1120" y2="580" stroke="#444" stroke-width="1.2"/><line x1="80" y1="580.0" x2="1120" y2="580.0" stroke="#ddd" stroke-width="1"/><text x="72" y="584.0" text-anchor="end"> 0</text><line x1="80" y1="476.0" x2="1120" y2="476.0" stroke="#ddd" stroke-width="1"/><text x="72" y="480.0" text-anchor="end"> 500000</text><line x1="80" y1="372.0" x2="1120" y2="372.0" stroke="#ddd" stroke-width="1"/><text x="72" y="376.0" text-anchor="end"> 1000000</text><line x1="80" y1="268.0" x2="1120" y2="268.0" stroke="#ddd" stroke-width="1"/><text x="72" y="272.0" text-anchor="end"> 1500000</text><line x1="80" y1="164.0" x2="1120" y2="164.0" stroke="#ddd" stroke-width="1"/><text x="72" y="168.0" text-anchor="end"> 2000000</text><line x1="80" y1="60.0" x2="1120" y2="60.0" stroke="#ddd" stroke-width="1"/><text x="72" y="64.0" text-anchor="end"> 2500000</text><text x="600" y="30" text-anchor="middle" font-size="16px" font-weight="600">BenchmarkRedeemBatch</text><text x="600" y="615" text-anchor="middle">ns/op</text><circle cx="80.0" cy="571.2" r="5" fill="#1f77b4"/><text x="80.0" y="635" text-anchor="middle" fill="#333">batch-redeem-1-10</text><circle cx="340.0" cy="535.9" r="5" fill="#1f77b4"/><text x="340.0" y="635" text-anchor="middle" fill="#333">batch-redeem-5-10</text><circle cx="600.0" cy="491.6" r="5" fill="#1f77b4"/><text x="600.0" y="635" text-anchor="middle" fill="#333">batch-redeem-10-10</text><circle cx="860.0" cy="358.5" r="5" fill="#1f77b4"/><text x="860.0" y="635" text-anchor="middle" fill="#333">batch-redeem-25-10</text><circle cx="1120.0" cy="133.4" r="5" fill="#1f77b4"/><text x="1120.0" y="635" text-anchor="middle" fill="#333">batch-redeem-50-10</text><polyline points="80.0,571.2 340.0,535.9 600.0,491.6 860.0,358.5 1120.0,133.4" fill="none" stroke="#ff7f0e" stroke-width="3" stroke-linejoin="round" stroke-linecap="round"/><text x="600" y="48" text-anchor="middle" font-size="12px">2146916 ns/op max</text></svg>